 <svg  version="1.0" xmlns="http://www.w3.org/2000/svg"  width="300.000000pt" height="300.000000pt" viewBox="0 0 300.000000 300.000000"  preserveAspectRatio="xMidYMid meet">  <g transform="translate(0.000000,300.000000) scale(0.100000,-0.100000)" fill="#ffffff" stroke="none"> <path d="M1330 2780 c-338 -47 -645 -224 -849 -490 -111 -145 -184 -292 -232 -470 -49 -183 -48 -448 2 -645 69 -269 228 -511 451 -687 92 -73 202 -140 278 -169 30 -11 64 -25 75 -29 157 -63 378 -91 561 -72 232 24 407 83 584 200 292 191 487 475 560 813 27 123 36 300 21 414 -16 122 -17 124 -30 175 -156 582 -671 976 -1266 969 -55 -1 -125 -5 -155 -9z m395 -23 c121 -21 335 -107 459 -184 127 -79 287 -236 372 -365 89 -136 139 -248 181 -413 26 -101 28 -125 28 -290 0 -153 -3 -195 -23 -280 -94 -406 -357 -723 -742 -894 -205 -91 -464 -123 -707 -86 -65 10 -122 22 -128 27 -5 4 -17 8 -27 8 -28 0 -185 68 -270 117 -210 121 -372 290 -497 518 -44 79 -75 165 -109 294 -25 98 -27 121 -27 296 1 202 9 254 75 445 67 192 243 428 415 556 33 25 67 50 76 57 90 68 321 163 454 186 33 6 71 13 85 15 27 5 352 -1 385 -7z"/> <path d="M1380 2724 c-184 -27 -283 -56 -425 -125 -281 -137 -510 -397 -616 -698 -11 -30 -18 -55 -17 -56 2 -1 129 -22 282 -46 189 -29 281 -39 283 -32 10 28 82 138 120 182 51 60 171 141 250 171 184 70 379 58 557 -32 106 -54 221 -169 273 -272 14 -28 27 -52 28 -54 3 -3 558 79 564 84 9 8 -75 200 -119 275 -69 113 -117 174 -216 268 -229 220 -544 345 -859 340 -44 -1 -91 -3 -105 -5z m270 -30 c14 -3 36 -8 50 -10 94 -15 187 -43 260 -77 47 -22 90 -41 96 -42 7 -2 51 -29 100 -61 97 -64 248 -207 314 -298 51 -70 110 -173 110 -191 0 -7 4 -15 9 -17 13 -5 52 -118 40 -118 -5 0 -8 -4 -5 -9 8 -12 -44 -22 -180 -36 -40 -4 -53 -2 -58 10 -4 11 2 15 22 15 87 0 111 134 36 199 -47 42 -94 42 -136 1 -38 -38 -92 -42 -102 -8 -8 33 47 89 83 82 32 -5 63 17 66 49 2 18 -11 40 -49 79 -79 84 -100 84 -185 4 -46 -43 -47 -41 -16 42 30 82 -1 139 -97 182 -46 20 -49 20 -73 3 -13 -10 -25 -23 -25 -29 0 -6 -16 -28 -34 -50 l-35 -39 5 65 c6 78 -7 108 -56 132 -47 23 -85 22 -130 -3 -33 -19 -41 -31 -60 -89 -21 -65 -23 -67 -40 -50 -9 9 -24 20 -31 23 -10 3 -7 12 14 31 32 31 33 43 10 76 -28 41 -45 49 -106 50 -52 0 -62 -4 -88 -29 -23 -23 -29 -39 -30 -73 -1 -49 -16 -109 -18 -71 -2 33 -50 100 -82 114 -38 15 -126 4 -167 -21 -38 -23 -40 -44 -13 -122 22 -64 14 -92 -15 -53 -48 66 -78 95 -98 95 -33 0 -66 -28 -66 -55 0 -22 -4 -24 -37 -23 -45 2 -77 -32 -69 -72 5 -28 55 -110 67 -110 3 0 9 -9 12 -20 6 -25 -7 -26 -30 -2 -34 35 -101 82 -115 82 -27 0 -61 -47 -54 -73 6 -24 73 -97 88 -97 4 0 8 -7 8 -16 0 -14 -4 -14 -32 3 -18 11 -52 27 -76 36 -43 17 -43 17 -67 -7 -29 -29 -32 -52 -10 -77 15 -15 13 -17 -19 -23 -25 -5 -39 -15 -50 -36 -13 -27 -13 -32 5 -54 11 -14 28 -28 39 -31 11 -4 18 -10 15 -15 -3 -4 5 -10 17 -13 12 -4 20 -9 17 -12 -10 -9 -186 22 -201 36 -14 12 -13 21 8 77 13 34 35 80 49 102 14 22 25 42 25 45 0 9 62 99 73 106 5 3 9 10 10 15 7 46 317 324 362 324 3 0 13 7 22 15 8 8 19 13 24 10 5 -4 9 -2 9 2 0 24 250 108 353 118 18 2 59 8 92 13 59 9 197 7 245 -4z m-136 -126 c13 -13 27 -33 31 -45 6 -21 3 -23 -29 -23 -25 0 -36 5 -36 14 0 20 -38 30 -55 16 -20 -17 -20 -123 0 -140 20 -17 48 -9 60 18 14 32 65 31 65 -2 0 -12 -11 -35 -25 -50 -20 -21 -33 -26 -74 -26 -43 0 -53 4 -75 31 -23 27 -26 40 -26 103 0 43 5 79 13 88 34 43 111 51 151 16z m274 -24 c39 -25 47 -55 32 -126 -23 -108 -89 -146 -167 -98 -41 24 -49 57 -33 129 16 74 26 90 63 107 35 15 69 11 105 -12z m-561 -19 c28 -20 65 -118 61 -163 -3 -41 -27 -61 -104 -91 l-52 -20 -42 120 c-24 66 -40 123 -36 127 12 12 99 40 126 41 14 1 35 -6 47 -14z m271 -47 c21 -2 13 -24 -13 -36 -39 -18 -45 -15 -45 19 0 28 3 31 23 24 12 -3 28 -7 35 -7z m519 -22 c31 -17 58 -41 69 -62 l19 -35 -35 -66 c-54 -100 -83 -112 -168 -68 -82 43 -82 31 -11 154 35 60 66 109 69 108 3 -1 28 -15 57 -31z m-1007 -116 c35 -47 67 -90 72 -97 6 -8 1 -17 -17 -29 -24 -16 -28 -15 -95 15 -39 17 -73 31 -75 31 -3 0 13 -25 36 -55 41 -55 43 -67 10 -84 -15 -9 -28 3 -82 77 -35 48 -70 94 -77 104 -11 15 -9 20 13 34 25 16 28 15 97 -15 39 -17 72 -30 74 -28 1 1 -16 26 -39 56 l-41 53 23 20 c13 10 27 15 31 11 4 -4 35 -46 70 -93z m667 -57 c34 -8 52 -6 124 11 13 3 15 -1 11 -16 -11 -43 116 -113 183 -100 27 5 28 3 22 -25 -5 -25 0 -38 31 -74 52 -63 73 -80 104 -86 29 -6 31 -10 29 -53 -1 -14 11 -50 28 -81 17 -33 25 -56 18 -56 -7 0 -28 -3 -47 -7 -39 -7 -41 -6 -107 93 -62 95 -152 175 -248 223 -40 20 -141 59 -165 63 -33 6 -128 19 -140 18 -166 -4 -289 -39 -405 -117 -80 -53 -167 -145 -207 -216 -33 -61 -49 -71 -100 -64 -36 4 -50 21 -42 47 3 10 0 24 -6 32 -14 17 -5 35 17 35 26 0 53 31 53 62 0 17 5 28 13 28 22 0 57 35 57 57 0 23 18 43 39 43 24 0 51 31 51 60 0 24 3 26 35 22 38 -4 75 18 75 45 0 8 12 13 31 13 76 0 179 52 179 90 0 30 14 31 54 3 30 -22 47 -26 93 -25 49 1 61 5 87 31 l30 30 33 -38 c21 -25 46 -42 70 -48z m607 -39 c48 -53 56 -67 46 -79 -19 -23 -29 -19 -70 28 -37 40 -39 41 -56 25 -17 -17 -17 -19 10 -47 26 -27 27 -31 13 -45 -22 -22 -34 -20 -53 9 -19 29 -22 30 -49 10 -18 -15 -18 -17 25 -60 37 -38 41 -46 30 -60 -19 -23 -28 -17 -93 51 l-58 61 72 69 c40 38 79 77 88 87 8 9 20 17 26 17 5 -1 36 -30 69 -66z m-1502 -85 c118 -101 110 -90 89 -118 l-18 -24 -100 84 c-99 82 -100 84 -84 106 9 12 19 23 23 23 4 0 44 -32 90 -71z m-82 -118 c58 -29 107 -55 109 -57 2 -2 -2 -17 -9 -33 l-12 -31 -42 25 c-24 14 -46 25 -49 25 -4 0 -13 -14 -22 -30 l-16 -30 46 -22 c48 -23 52 -32 31 -61 -13 -17 -20 -15 -125 38 -61 30 -111 61 -111 68 0 7 6 22 14 32 13 18 14 18 48 -3 45 -28 50 -28 69 7 l17 29 -40 18 c-21 9 -41 21 -44 25 -5 9 17 61 25 57 3 -2 53 -27 111 -57z m1730 1 c39 -39 49 -95 23 -130 -26 -35 -38 -37 -51 -7 -9 20 -9 30 1 45 14 23 0 55 -24 55 -11 0 -13 -15 -11 -67 3 -57 0 -70 -17 -87 -66 -66 -181 43 -136 128 20 40 40 45 54 14 9 -19 9 -29 0 -39 -15 -19 3 -64 26 -64 13 0 15 13 13 71 -3 64 -1 73 21 90 33 27 68 24 101 -9z"/> <path d="M1703 2498 c-6 -7 -16 -37 -23 -67 -12 -50 -11 -55 6 -68 34 -25 51 -10 70 61 12 45 12 61 3 72 -14 17 -43 18 -56 2z"/> <path d="M1133 2474 c-8 -4 -4 -27 14 -79 l25 -75 30 16 c33 17 34 36 4 108 -15 35 -37 44 -73 30z"/> <path d="M1946 2348 c-34 -58 -36 -64 -20 -75 31 -23 51 -14 78 31 31 53 33 82 7 96 -11 5 -22 10 -24 10 -2 0 -21 -28 -41 -62z"/> <path d="M1432 2098 c-276 -32 -497 -253 -530 -529 -5 -36 -6 -71 -4 -78 6 -18 279 -14 286 5 4 12 -19 14 -135 14 l-140 0 7 48 c12 88 53 197 101 269 27 40 50 73 53 73 3 0 90 -83 192 -185 168 -167 208 -201 208 -177 0 4 -83 90 -185 192 -102 102 -185 189 -185 195 0 19 135 100 212 127 42 15 98 28 125 30 l48 3 3 -268 c1 -172 6 -266 12 -262 6 4 10 106 10 265 0 164 4 261 10 265 13 8 109 -11 170 -32 44 -16 157 -78 193 -107 22 -17 15 -36 -32 -80 -56 -54 -32 -59 26 -6 38 35 59 48 61 39 3 -8 19 -34 37 -59 46 -63 83 -150 100 -232 8 -38 15 -76 15 -84 0 -12 -43 -14 -276 -14 -245 0 -274 -2 -260 -15 12 -13 58 -15 285 -15 l271 0 -6 48 c-13 107 -28 161 -67 241 -109 224 -356 359 -605 329z"/> <path d="M1577 2009 c-24 -14 -22 -56 4 -70 18 -9 25 -7 42 9 11 11 17 27 14 36 -9 23 -40 36 -60 25z"/> <path d="M1254 1935 c-29 -29 -26 -58 8 -87 26 -23 40 -23 72 3 32 25 34 61 4 89 -29 27 -54 25 -84 -5z m64 -3 c7 -5 15 -20 17 -35 6 -30 -23 -52 -54 -42 -25 8 -33 29 -21 60 10 25 34 32 58 17z"/> <path d="M1649 1839 c-37 -40 -39 -86 -4 -127 30 -36 69 -45 113 -26 64 26 75 113 20 159 -43 36 -92 34 -129 -6z m126 -14 c33 -33 32 -70 -4 -106 -38 -38 -82 -39 -110 -3 -65 82 41 183 114 109z"/> <path d="M1380 1795 c-26 -32 13 -81 48 -59 34 22 22 74 -18 74 -10 0 -23 -7 -30 -15z"/> <path d="M289 1708 c-17 -96 -17 -312 0 -416 13 -82 14 -83 40 -78 31 7 518 86 527 86 3 0 3 11 0 24 -27 108 -27 244 0 350 5 22 1 24 -68 35 -40 6 -161 24 -267 41 -107 16 -200 30 -207 30 -7 0 -17 -29 -25 -72z m281 8 c80 -14 162 -26 182 -26 58 0 71 -21 63 -99 -10 -83 -10 -70 -1 -173 8 -101 8 -102 -89 -113 -33 -3 -94 -12 -135 -20 -97 -18 -213 -35 -240 -35 -24 0 -35 24 -44 100 -9 74 -9 288 0 302 4 7 9 25 11 42 2 16 9 36 15 44 14 16 21 15 238 -22z"/> <path d="M434 1588 c-15 -16 -16 -24 -7 -48 8 -22 8 -40 0 -65 -7 -25 -7 -39 0 -46 17 -17 83 -28 109 -19 13 5 45 7 71 4 40 -5 52 -2 71 15 22 22 26 37 22 101 -3 71 -16 78 -139 78 -96 0 -112 -2 -127 -20z m106 -18 c12 -22 2 -49 -33 -87 l-20 -23 31 0 c22 0 32 -5 32 -15 0 -12 -13 -15 -55 -15 -66 0 -69 10 -20 67 50 59 45 83 -10 47 -24 -15 -25 -15 -25 3 0 28 20 43 57 43 22 0 36 -6 43 -20z m128 8 c18 -18 15 -113 -4 -132 -20 -20 -58 -20 -78 0 -19 19 -22 114 -4 132 7 7 26 12 43 12 17 0 36 -5 43 -12z"/> <path d="M611 1556 c-7 -8 -11 -32 -9 -53 2 -30 7 -38 23 -38 16 0 21 8 23 41 3 47 -17 74 -37 50z"/> <path d="M2402 1740 c-140 -21 -256 -40 -258 -43 -3 -3 0 -25 7 -48 16 -57 16 -241 0 -298 -7 -23 -10 -45 -7 -48 3 -3 117 -23 253 -44 136 -21 260 -41 274 -44 26 -6 27 -4 38 57 26 142 24 366 -6 486 -7 28 8 28 -301 -18z m275 -12 c16 -18 18 -40 17 -222 0 -218 -7 -256 -46 -256 -13 0 -95 11 -183 25 -88 14 -182 28 -210 31 -27 3 -54 10 -59 15 -12 11 -15 340 -3 357 5 6 25 12 44 12 34 0 345 48 351 55 12 12 73 0 89 -17z"/> <path d="M2327 1595 c-19 -13 -23 -55 -7 -71 6 -6 6 -21 -2 -42 -9 -24 -10 -37 -2 -50 14 -21 61 -31 92 -20 13 4 47 5 76 2 46 -6 57 -3 75 15 17 17 20 32 19 91 0 38 -6 74 -12 79 -17 14 -219 11 -239 -4z m91 -17 c20 -20 13 -51 -20 -85 l-32 -33 37 0 c26 0 37 -4 37 -15 0 -11 -13 -15 -54 -15 -30 0 -57 4 -61 9 -3 5 13 30 35 56 22 25 40 50 40 56 0 14 -30 11 -47 -7 -22 -21 -39 -3 -24 25 13 24 69 29 89 9z m142 0 c0 -6 -7 -19 -15 -28 -14 -15 -14 -18 0 -30 33 -27 5 -90 -41 -90 -13 0 -30 10 -38 22 -21 30 -20 38 4 38 11 0 20 -7 20 -15 0 -18 27 -20 33 -2 7 20 -4 37 -24 37 -24 0 -25 28 -1 38 13 5 11 8 -12 12 -16 3 -31 11 -34 18 -3 9 12 12 52 12 36 0 56 -4 56 -12z"/> <path d="M1036 1718 c-9 -12 -16 -29 -16 -38 0 -30 30 -60 60 -60 27 0 70 32 70 53 0 13 -22 51 -34 59 -23 16 -65 8 -80 -14z m80 -12 c18 -19 18 -31 -2 -54 -22 -26 -62 -17 -71 16 -10 41 42 69 73 38z"/> <path d="M1876 1688 c-32 -45 -7 -98 45 -98 30 0 43 9 58 38 12 23 1 58 -23 74 -23 16 -65 8 -80 -14z m84 -18 c23 -43 -31 -81 -66 -46 -16 17 -19 46 -3 46 5 0 7 5 4 10 -4 6 6 10 24 10 20 0 34 -7 41 -20z"/> <path d="M1591 1606 c-35 -35 -59 -66 -54 -69 5 -3 41 25 78 63 38 39 63 70 54 70 -8 0 -43 -29 -78 -64z"/> <path d="M1216 1548 c-32 -46 -7 -98 47 -98 55 0 78 60 40 103 -23 24 -68 22 -87 -5z m64 -10 c0 -4 6 -7 13 -5 14 2 17 -33 4 -50 -5 -7 -23 -13 -39 -13 -35 0 -54 36 -32 60 14 16 54 22 54 8z"/> <path d="M1340 1497 c0 -20 84 -22 100 -2 11 13 6 15 -44 15 -40 0 -56 -4 -56 -13z"/> <path d="M900 1442 c0 -49 29 -145 67 -222 90 -180 292 -310 498 -322 35 -2 50 1 49 10 -1 6 -2 131 -2 277 -1 169 -6 265 -12 265 -6 0 -10 -95 -10 -264 0 -163 -4 -267 -10 -271 -15 -9 -129 14 -195 41 -61 25 -184 103 -185 117 0 4 20 29 45 56 61 65 45 72 -23 10 -38 -35 -58 -47 -61 -38 -2 8 -21 39 -42 69 -49 72 -73 129 -94 223 -18 81 -25 95 -25 49z"/> <path d="M1376 1391 c-43 -43 -74 -81 -69 -84 5 -3 44 29 87 72 43 43 74 81 69 84 -5 3 -44 -29 -87 -72z"/> <path d="M1536 1461 c-6 -10 9 -29 45 -58 13 -10 16 -10 16 2 0 20 -53 69 -61 56z"/> <path d="M2081 1415 c-18 -87 -58 -187 -94 -237 -17 -24 -36 -54 -43 -67 -13 -25 -14 -24 -117 78 -137 134 -152 115 -18 -22 55 -56 95 -104 88 -106 -6 -2 -33 -19 -58 -37 -63 -46 -149 -83 -234 -101 -38 -8 -72 -16 -74 -19 -10 -10 68 -3 119 11 169 45 315 164 388 316 40 83 68 188 60 225 -3 10 -10 -8 -17 -41z"/> <path d="M1632 1414 c-31 -21 -31 -87 0 -108 32 -22 61 -20 86 7 28 30 28 71 0 97 -26 24 -56 26 -86 4z m74 -19 c19 -18 15 -65 -7 -78 -9 -5 -27 -7 -41 -4 -29 8 -43 50 -27 79 12 22 55 23 75 3z"/> <path d="M1902 1388 c-39 -39 17 -100 58 -63 34 31 20 75 -25 75 -12 0 -26 -5 -33 -12z m38 -22 c-17 -17 -11 -29 8 -15 15 13 16 12 4 -3 -16 -21 -38 -14 -38 11 0 12 7 19 18 18 12 -1 14 -5 8 -11z"/> <path d="M1023 1378 c-33 -43 -11 -91 40 -86 42 4 60 47 32 78 -20 22 -58 26 -72 8z m60 -30 c8 -29 1 -38 -29 -38 -18 0 -24 5 -24 23 0 13 3 27 7 30 14 15 41 6 46 -15z"/> <path d="M1215 1320 c-34 -13 -46 -36 -43 -76 4 -48 50 -80 91 -65 63 24 73 107 17 136 -32 17 -37 17 -65 5z m69 -32 c21 -30 20 -54 -4 -78 -39 -39 -94 -15 -92 39 1 57 66 82 96 39z"/> <path d="M585 1195 c-143 -24 -261 -43 -262 -44 -5 -2 52 -150 77 -202 123 -244 360 -468 607 -574 286 -123 591 -136 888 -39 293 97 562 331 704 612 29 57 81 190 81 206 0 3 -12 6 -27 6 -16 0 -142 18 -282 40 -140 22 -255 39 -256 37 -1 -1 -17 -31 -36 -67 -73 -139 -244 -271 -409 -316 -103 -27 -264 -23 -365 9 -84 28 -172 76 -241 133 -49 39 -127 140 -157 202 -15 30 -27 42 -41 41 -12 -1 -138 -21 -281 -44z m294 -11 c12 -15 21 -31 21 -36 0 -14 74 -104 124 -152 87 -82 183 -134 310 -166 293 -74 610 56 761 312 39 66 53 75 102 61 37 -11 194 -35 343 -54 75 -9 108 -28 92 -53 -3 -6 -7 -17 -8 -24 -1 -6 -23 -54 -48 -105 -70 -141 -181 -281 -301 -382 -33 -27 -61 -53 -63 -57 -2 -5 -8 -8 -13 -8 -5 0 -36 -18 -68 -40 -32 -22 -66 -40 -75 -40 -9 0 -16 -4 -16 -9 0 -18 -194 -88 -310 -112 -42 -9 -128 -14 -245 -13 -150 1 -194 5 -265 23 -47 12 -94 26 -105 30 -11 5 -45 19 -75 31 -255 103 -500 337 -625 596 -51 107 -55 117 -40 137 11 16 103 33 354 68 35 5 66 11 69 14 15 15 62 3 81 -21z"/> <path d="M791 1069 c-52 -20 -191 -143 -191 -169 0 -47 56 -75 99 -48 15 9 24 7 49 -10 39 -28 84 -37 111 -23 17 10 21 9 21 -4 0 -8 -8 -24 -17 -36 -10 -11 -26 -30 -35 -41 -29 -34 -32 -58 -11 -87 39 -51 66 -39 156 72 37 46 57 58 57 35 0 -6 7 -19 15 -28 22 -24 10 -45 -35 -65 -64 -29 -89 -85 -52 -117 22 -20 97 -58 135 -69 49 -14 90 49 52 81 -26 21 -17 37 40 69 l55 31 30 -22 c33 -24 32 -26 -25 -83 -41 -41 -47 -97 -12 -120 32 -20 163 -35 182 -21 8 6 16 23 19 39 4 21 -1 31 -20 43 -13 9 -24 22 -24 29 0 16 78 87 89 81 5 -3 11 -40 15 -83 4 -43 14 -89 23 -102 15 -23 18 -23 101 -17 48 4 92 12 99 18 22 18 15 64 -11 85 -16 12 -25 32 -29 64 -6 42 -4 47 19 58 26 12 44 8 44 -10 0 -6 9 -29 20 -51 11 -23 20 -47 20 -54 0 -7 13 -23 30 -37 35 -30 62 -26 90 13 15 21 25 26 48 22 68 -10 96 38 51 90 -21 24 -28 44 -29 73 0 22 -7 51 -16 63 -8 12 -10 22 -5 22 6 0 11 -4 11 -9 0 -4 16 -25 36 -46 19 -21 43 -49 51 -62 9 -13 28 -30 43 -38 25 -13 30 -13 54 6 14 11 26 29 26 40 0 18 -18 58 -31 69 -3 3 -22 29 -42 58 -62 90 -99 110 -139 73 -15 -15 -19 -28 -16 -51 4 -30 3 -31 -21 -24 -45 14 -96 7 -149 -20 -29 -15 -52 -30 -52 -34 0 -4 -41 -8 -91 -9 -57 -2 -102 -8 -121 -18 -22 -11 -35 -12 -50 -4 -38 20 -104 35 -155 35 -35 -1 -54 4 -61 14 -16 25 -137 80 -175 80 -19 0 -26 6 -29 22 -2 12 -15 29 -31 38 -25 14 -30 13 -55 -1 -23 -13 -29 -13 -29 -3 0 8 3 14 7 14 18 0 -17 94 -48 130 -42 50 -61 60 -91 49z m67 -61 c55 -72 60 -97 27 -136 -38 -46 -86 -45 -129 3 l-32 35 -36 -30 -35 -29 -22 23 -22 23 102 82 c57 44 104 81 105 81 1 0 20 -24 42 -52z m150 -153 c21 -16 21 -16 -56 -115 -42 -54 -82 -99 -88 -99 -6 -1 -19 8 -28 18 -17 18 -14 23 61 115 42 53 80 96 83 96 3 0 15 -7 28 -15z m1126 -224 c-13 -14 -25 -23 -27 -20 -2 2 -38 50 -80 106 l-75 102 25 19 26 19 77 -101 77 -101 -23 -24z m-981 133 c39 -20 74 -38 76 -40 2 -2 -1 -15 -7 -28 -7 -16 -40 -38 -98 -65 l-88 -42 52 -24 c51 -24 60 -37 43 -63 -6 -10 -25 -5 -87 25 -43 21 -81 39 -83 40 -2 2 1 14 7 28 8 16 40 39 97 68 l86 43 -50 24 c-53 24 -55 27 -45 54 8 22 15 21 97 -20z m772 -29 c27 -26 31 -54 14 -87 -10 -19 -7 -26 32 -59 24 -21 42 -39 39 -41 -3 -2 -16 -9 -30 -15 -22 -10 -29 -7 -67 30 -31 30 -46 38 -54 30 -8 -8 -5 -23 11 -53 22 -43 17 -59 -17 -60 -7 0 -16 0 -19 0 -9 -1 -104 223 -98 229 14 14 112 50 137 51 17 0 38 -10 52 -25z m-562 -40 c43 -8 81 -15 83 -15 2 0 4 -12 4 -27 0 -22 -15 -41 -70 -88 -38 -33 -70 -63 -70 -66 0 -4 25 -10 56 -14 54 -6 56 -7 49 -33 -4 -15 -7 -28 -8 -28 -1 -1 -41 6 -89 15 -84 15 -88 17 -88 42 0 19 18 41 74 91 l75 66 -31 6 c-17 3 -41 6 -54 6 -28 0 -35 10 -27 38 6 26 -1 26 96 7z m327 -25 c0 -26 -3 -30 -29 -30 -61 0 -91 -11 -91 -35 0 -21 3 -22 45 -17 43 4 45 3 45 -21 0 -22 -6 -26 -40 -32 -34 -6 -40 -10 -40 -31 0 -24 1 -24 65 -18 65 7 65 7 65 -19 0 -28 -4 -30 -122 -42 -44 -5 -58 -3 -58 7 -1 7 -7 65 -15 128 -7 63 -13 116 -12 117 2 1 120 16 175 22 7 0 12 -11 12 -29z"/> <path d="M792 964 c-27 -19 -28 -28 -2 -54 37 -37 70 -1 41 43 -16 25 -19 26 -39 11z"/> <path d="M1822 692 c-10 -7 -10 -15 -3 -36 11 -26 11 -26 41 -11 20 10 30 22 28 33 -3 19 -45 27 -66 14z"/> <path d="M2119 1007 c-20 -15 -39 -51 -39 -72 0 -15 75 -137 121 -197 12 -17 31 -28 44 -28 25 0 69 46 59 61 -10 17 15 46 55 63 29 14 42 26 46 47 4 16 4 33 0 39 -12 20 -212 100 -248 100 -12 0 -29 -6 -38 -13z m163 -55 l116 -47 -20 -28 c-16 -21 -23 -25 -38 -17 -15 8 -23 4 -44 -21 -29 -35 -31 -40 -14 -57 10 -10 7 -18 -13 -38 l-26 -25 -69 107 c-38 59 -71 112 -73 117 -4 11 39 57 53 57 6 -1 63 -22 128 -48z"/> <path d="M2180 925 c0 -3 13 -23 29 -45 27 -37 29 -39 45 -21 23 25 21 28 -24 51 -41 21 -50 24 -50 15z"/> <path d="M1317 1092 c-30 -33 -15 -72 28 -72 43 0 59 44 27 73 -24 22 -35 21 -55 -1z m53 -33 c0 -11 -4 -19 -10 -19 -5 0 -9 5 -7 11 1 6 -4 14 -11 16 -8 3 -10 -2 -6 -14 5 -14 4 -15 -4 -4 -6 8 -8 20 -5 26 7 19 43 5 43 -16z"/> <path d="M1618 1065 c-14 -32 5 -57 41 -53 18 2 27 10 29 26 7 50 -49 72 -70 27z"/> </g> </svg> 